<svg width="20" height="20" viewBox="0 0 20 20" fill="none" xmlns="http://www.w3.org/2000/svg">
<path fill-rule="evenodd" clip-rule="evenodd" d="M10.9131 13.7512H12.5951V16.2063H10.9131V13.7512Z" fill="white"/>
<path fill-rule="evenodd" clip-rule="evenodd" d="M7.2644 9.99133H8.97562V12.4653H7.2644V9.99133Z" fill="white"/>
<path fill-rule="evenodd" clip-rule="evenodd" d="M11.4531 5.95456C13.0183 4.70128 14.1348 1.87264 14.1348 0.848719C14.1348 -1.31443 12.2576 1.40016 9.94253 1.40016C7.62383 1.40016 5.75025 -1.342 5.75025 0.848719C5.75025 1.89019 6.89775 4.79403 8.50862 6.01597C3.7508 6.94339 0 11.6482 0 15.784C0 19.441 4.4787 20 10.0009 20C15.5231 20 20 19.3909 20 15.784C20 12.0166 16.3441 6.75916 11.4531 5.95456ZM14.6183 16.3166H12.7939V17.5498H10.9696V18.842H9.0322V17.5498H7.20788V16.3166L7.2316 16.2966H5.38356V14.9656H7.29362V16.2439L7.32281 16.2189H9.03402V13.79H7.26444V12.5568H5.35437V9.97256H7.26444V8.69923H9.0322V7.4071H10.9696V8.69923H12.7939V9.9525H14.5891V11.2835H12.679V10.0039L12.6498 10.0114H10.9678V12.4591H12.8213V13.7324H14.6164V16.3166H14.6183Z" fill="white"/>
</svg>
