<svg width="18" height="17" viewBox="0 0 18 17" fill="none" xmlns="http://www.w3.org/2000/svg">
<path d="M0.666626 11.75C0.666626 14.2833 2.71663 16.3333 5.24996 16.3333C7.78329 16.3333 9.83329 14.2833 9.83329 11.75V6.33333H0.666626V11.75ZM5.24996 13.4167C4.09996 13.4167 3.16663 12.8583 3.16663 12.1667H7.33329C7.33329 12.8583 6.39996 13.4167 5.24996 13.4167ZM7.33329 8.83333C7.79163 8.83333 8.16663 9.20833 8.16663 9.66667C8.16663 10.125 7.79163 10.5 7.33329 10.5C6.87496 10.5 6.49996 10.125 6.49996 9.66667C6.49996 9.20833 6.87496 8.83333 7.33329 8.83333ZM3.16663 8.83333C3.62496 8.83333 3.99996 9.20833 3.99996 9.66667C3.99996 10.125 3.62496 10.5 3.16663 10.5C2.70829 10.5 2.33329 10.125 2.33329 9.66667C2.33329 9.20833 2.70829 8.83333 3.16663 8.83333Z" fill="#FFFD54"/>
<path d="M8.16663 0.5V5.5H10.6666V7.58333C10.6666 6.89167 11.6 6.33333 12.75 6.33333C13.9 6.33333 14.8333 6.89167 14.8333 7.58333H10.6666V9.66667V9.99167C11.2916 10.3083 12 10.5 12.75 10.5C15.2833 10.5 17.3333 8.45 17.3333 5.91667V0.5H8.16663ZM10.6666 4.73333C10.2083 4.73333 9.83329 4.35833 9.83329 3.9C9.83329 3.44167 10.2083 3.06667 10.6666 3.06667C11.125 3.06667 11.5 3.44167 11.5 3.9C11.5 4.36667 11.125 4.73333 10.6666 4.73333ZM14.8333 4.73333C14.375 4.73333 14 4.35833 14 3.9C14 3.44167 14.375 3.06667 14.8333 3.06667C15.2916 3.06667 15.6666 3.44167 15.6666 3.9C15.6666 4.36667 15.2916 4.73333 14.8333 4.73333Z" fill="#FFFD54"/>
</svg>
