<svg width="12" height="12" viewBox="0 0 12 12" fill="none" xmlns="http://www.w3.org/2000/svg">
<path fill-rule="evenodd" clip-rule="evenodd" d="M5.97187 11.4003C3.02303 11.4003 0.625 9.02014 0.625 6.09342C0.625 3.1667 3.02303 0.786507 5.97187 0.786507C8.9207 0.786507 11.3194 3.1667 11.3194 6.09342C11.3194 9.02014 8.9207 11.4003 5.97187 11.4003ZM5.98328 1.39725C3.39832 1.39725 1.29425 3.50061 1.29425 6.08628C1.29425 8.67267 3.39832 10.776 5.98328 10.776C8.56967 10.776 10.673 8.67267 10.673 6.08628C10.673 3.50061 8.56967 1.39725 5.98328 1.39725Z" fill="black"/>
<path fill-rule="evenodd" clip-rule="evenodd" d="M5.61938 1.44168H6.27722V11.4904H5.61938V1.44168Z" fill="black"/>
<path fill-rule="evenodd" clip-rule="evenodd" d="M0.625 5.7226H10.5853V6.38043H0.625V5.7226Z" fill="black"/>
<path fill-rule="evenodd" clip-rule="evenodd" d="M1.3385 3.58215H10.19V4.22857H1.3385V3.58215Z" fill="black"/>
<path fill-rule="evenodd" clip-rule="evenodd" d="M1.3385 7.86306H10.19V8.52089H1.3385V7.86306Z" fill="black"/>
<path fill-rule="evenodd" clip-rule="evenodd" d="M5.84558 11.3263C3.99266 10.4181 2.79614 8.33539 2.79614 6.02013C2.79614 3.75838 3.95413 1.69498 5.74855 0.763878L6.07747 1.39674C4.51707 2.20797 3.50963 4.02237 3.50963 6.02013C3.50963 8.06427 4.5506 9.89579 6.15952 10.6849L5.84558 11.3263Z" fill="black"/>
<path fill-rule="evenodd" clip-rule="evenodd" d="M6.14737 11.28L5.81274 10.65C7.33889 9.84086 8.32493 8.02361 8.32493 6.02014C8.32493 4.04022 7.3553 2.23153 5.85627 1.41316L6.19803 0.787437C7.92324 1.72781 9.03841 3.78194 9.03841 6.02014C9.03913 8.28546 7.90326 10.3496 6.14737 11.28Z" fill="black"/>
</svg>
