<svg width="12" height="12" viewBox="0 0 12 12" fill="none" xmlns="http://www.w3.org/2000/svg">
<path fill-rule="evenodd" clip-rule="evenodd" d="M3.75527 9.86952L1.19899 8.9073L0.873321 9.69659C0.873321 9.69659 0.561777 10.9737 1.67876 11.3943C2.79709 11.8162 3.44103 10.6628 3.44103 10.6628L3.75527 9.86952Z" fill="#434343"/>
<path fill-rule="evenodd" clip-rule="evenodd" d="M5.6252 2.88568C4.52033 2.44225 2.96934 3.41456 2.43306 4.63988C2.21235 5.14454 2.1121 5.6889 2.02866 6.22585C1.98896 6.48222 1.9607 6.74532 1.91023 7.00101C1.84563 7.32198 1.74941 7.63083 1.65386 7.94237C1.52131 8.37503 1.66732 8.44771 2.07038 8.52172L3.48208 9.05464C3.62608 9.12328 3.90734 9.29621 4.05201 9.13472C4.17986 8.99005 4.15429 8.72628 4.23974 8.55469C4.35009 8.33197 4.4739 8.10521 4.6105 7.89527C4.91262 7.4256 5.48592 7.08243 5.87417 6.67736C6.35528 6.17404 6.62107 5.66938 6.76775 5.00189C6.96289 4.11301 6.51408 3.24163 5.6252 2.88568Z" fill="#434343"/>
<path fill-rule="evenodd" clip-rule="evenodd" d="M6.81618 6.98757L9.27556 7.95854C9.27556 7.95854 8.7682 9.94555 7.26634 9.36755C5.76447 8.7882 6.81618 6.98757 6.81618 6.98757Z" fill="#434343"/>
<path fill-rule="evenodd" clip-rule="evenodd" d="M10.3239 0.883215C11.3736 1.27349 11.7961 2.92742 11.3541 4.11775C11.1717 4.60693 10.881 5.04565 10.5829 5.47293C10.4403 5.67614 10.2855 5.87531 10.1503 6.08592C9.98408 6.34835 9.84547 6.6249 9.70551 6.90078C9.5097 7.28432 9.361 7.24059 9.03532 7.0394L7.71311 6.51926C7.56979 6.47619 7.26296 6.41698 7.27103 6.21579C7.27843 6.03411 7.4702 5.86589 7.52538 5.69498C7.5967 5.47091 7.66197 5.23406 7.70638 5.00326C7.80866 4.48649 7.64179 3.88561 7.64448 3.36076C7.64448 2.70874 7.79722 2.18995 8.13703 1.63482C8.59257 0.890616 9.4774 0.570325 10.3239 0.883215Z" fill="#434343"/>
</svg>
