<svg width="80" height="80" viewBox="0 0 80 80" fill="none" xmlns="http://www.w3.org/2000/svg">
<circle cx="40" cy="40" r="40" fill="black"/>
<path d="M38.85 58.5C35.8167 58.5 33.15 57.8333 30.85 56.5C28.5833 55.1667 26.8167 53.2333 25.55 50.7C24.2833 48.1667 23.65 45.1167 23.65 41.55C23.65 38.0167 24.3167 34.9833 25.65 32.45C26.9833 29.8833 28.8667 27.9167 31.3 26.55C33.7667 25.1833 36.6167 24.5 39.85 24.5C43.4167 24.5 46.3 25.1667 48.5 26.5C50.7 27.8 52.45 29.8333 53.75 32.6L47.35 35.35C46.8167 33.5833 45.9 32.2833 44.6 31.45C43.3333 30.5833 41.7667 30.15 39.9 30.15C38.0333 30.15 36.4167 30.6 35.05 31.5C33.6833 32.3667 32.6333 33.65 31.9 35.35C31.1667 37.0167 30.8 39.0667 30.8 41.5C30.8 44 31.15 46.1167 31.85 47.85C32.55 49.55 33.5833 50.8333 34.95 51.7C36.35 52.5333 38.0667 52.95 40.1 52.95C41.2 52.95 42.2167 52.8167 43.15 52.55C44.1167 52.2833 44.95 51.8833 45.65 51.35C46.35 50.8167 46.9 50.1333 47.3 49.3C47.7 48.4667 47.9 47.5 47.9 46.4V45.65H39.25V40.6H53.85V58H49L48.5 50.8L49.7 51.65C48.9667 53.85 47.6667 55.55 45.8 56.75C43.9667 57.9167 41.65 58.5 38.85 58.5Z" fill="#0FEC3F"/>
</svg>
