<svg width="42" height="42" viewBox="0 0 42 42" fill="none" xmlns="http://www.w3.org/2000/svg">
<path fill-rule="evenodd" clip-rule="evenodd" d="M41.2859 7.8508C41.2859 9.73987 39.9501 11.2779 38.2991 11.2779H32.733C31.0879 11.2779 29.7491 9.7369 29.7491 7.8508V3.42115C29.7491 1.53208 31.0879 0 32.733 0H38.2991C39.9501 0 41.2859 1.53506 41.2859 3.42115V7.8508Z" fill="#F4ED35"/>
<path fill-rule="evenodd" clip-rule="evenodd" d="M26.4113 7.8508C26.4113 9.73987 25.0756 11.2779 23.4245 11.2779H17.8584C16.2133 11.2779 14.8746 9.7369 14.8746 7.8508V3.42115C14.8746 1.53208 16.2133 0 17.8584 0H23.4245C25.0756 0 26.4113 1.53506 26.4113 3.42115V7.8508Z" fill="#F4ED35"/>
<path fill-rule="evenodd" clip-rule="evenodd" d="M11.5367 7.8508C11.5367 9.73987 10.201 11.2779 8.54991 11.2779H2.98384C1.33871 11.2779 0 9.7369 0 7.8508V3.42115C0 1.53208 1.33871 0 2.98384 0H8.54991C10.201 0 11.5367 1.53506 11.5367 3.42115V7.8508Z" fill="#F4ED35"/>
<path fill-rule="evenodd" clip-rule="evenodd" d="M41.2859 22.7254C41.2859 24.6144 39.9501 26.1525 38.2991 26.1525H32.733C31.0879 26.1525 29.7491 24.6115 29.7491 22.7254V18.2957C29.7491 16.4067 31.0879 14.8746 32.733 14.8746H38.2991C39.9501 14.8746 41.2859 16.4096 41.2859 18.2957V22.7254Z" fill="#F4ED35"/>
<path fill-rule="evenodd" clip-rule="evenodd" d="M26.4113 22.7254C26.4113 24.6144 25.0756 26.1525 23.4245 26.1525H17.8584C16.2133 26.1525 14.8746 24.6115 14.8746 22.7254V18.2957C14.8746 16.4067 16.2133 14.8746 17.8584 14.8746H23.4245C25.0756 14.8746 26.4113 16.4096 26.4113 18.2957V22.7254Z" fill="#F4ED35"/>
<path fill-rule="evenodd" clip-rule="evenodd" d="M11.5367 22.7254C11.5367 24.6144 10.201 26.1525 8.54991 26.1525H2.98384C1.33871 26.1525 0 24.6115 0 22.7254V18.2957C0 16.4067 1.33871 14.8746 2.98384 14.8746H8.54991C10.201 14.8746 11.5367 16.4096 11.5367 18.2957V22.7254Z" fill="#F4ED35"/>
<path fill-rule="evenodd" clip-rule="evenodd" d="M41.2859 37.5999C41.2859 39.489 39.9501 41.0271 38.2991 41.0271H32.733C31.0879 41.0271 29.7491 39.486 29.7491 37.5999V33.1703C29.7491 31.2812 31.0879 29.7491 32.733 29.7491H38.2991C39.9501 29.7491 41.2859 31.2842 41.2859 33.1703V37.5999Z" fill="#F4ED35"/>
<path fill-rule="evenodd" clip-rule="evenodd" d="M26.4113 37.5999C26.4113 39.489 25.0756 41.0271 23.4245 41.0271H17.8584C16.2133 41.0271 14.8746 39.486 14.8746 37.5999V33.1703C14.8746 31.2812 16.2133 29.7491 17.8584 29.7491H23.4245C25.0756 29.7491 26.4113 31.2842 26.4113 33.1703V37.5999Z" fill="#F4ED35"/>
<path fill-rule="evenodd" clip-rule="evenodd" d="M11.5367 37.5999C11.5367 39.489 10.201 41.0271 8.54991 41.0271H2.98384C1.33871 41.0271 0 39.486 0 37.5999V33.1703C0 31.2812 1.33871 29.7491 2.98384 29.7491H8.54991C10.201 29.7491 11.5367 31.2842 11.5367 33.1703V37.5999Z" fill="#F4ED35"/>
</svg>
