<svg width="32" height="32" viewBox="0 0 32 32" fill="none" xmlns="http://www.w3.org/2000/svg">
<path d="M15.575 8.85996L5.33302 19.7076V31.4153C5.33302 31.7185 5.42667 32.0092 5.59335 32.2235C5.76004 32.4379 5.98611 32.5583 6.22184 32.5583L12.4469 32.5376C12.6819 32.5361 12.9068 32.415 13.0725 32.2008C13.2383 31.9866 13.3313 31.6968 13.3313 31.3946V24.5574C13.3313 24.2543 13.4249 23.9636 13.5916 23.7492C13.7583 23.5349 13.9844 23.4144 14.2201 23.4144H17.7754C18.0111 23.4144 18.2372 23.5349 18.4039 23.7492C18.5706 23.9636 18.6642 24.2543 18.6642 24.5574V31.3896C18.6639 31.54 18.6866 31.689 18.7311 31.8281C18.7756 31.9672 18.841 32.0936 18.9236 32.2001C19.0061 32.3067 19.1042 32.3912 19.2123 32.4488C19.3203 32.5065 19.4361 32.5362 19.553 32.5362L25.7759 32.5583C26.0116 32.5583 26.2377 32.4379 26.4044 32.2235C26.5711 32.0092 26.6647 31.7185 26.6647 31.4153V19.6997L16.4249 8.85996C16.3046 8.73518 16.1546 8.66713 16 8.66713C15.8454 8.66713 15.6954 8.73518 15.575 8.85996ZM31.7532 16.2329L27.1091 11.3102V1.41556C27.1091 1.1882 27.0389 0.970162 26.9139 0.809399C26.7889 0.648635 26.6193 0.558319 26.4425 0.558319H23.3316C23.1548 0.558319 22.9853 0.648635 22.8603 0.809399C22.7353 0.970162 22.665 1.1882 22.665 1.41556V6.60256L17.6915 1.34055C17.2142 0.835478 16.6153 0.559329 15.9972 0.559329C15.3791 0.559329 14.7802 0.835478 14.3029 1.34055L0.241193 16.2329C0.173691 16.3047 0.117844 16.3928 0.0768427 16.4923C0.0358414 16.5918 0.0104894 16.7008 0.00223521 16.8129C-0.00601893 16.925 0.00298655 17.0381 0.0287371 17.1457C0.0544876 17.2534 0.0964786 17.3534 0.152311 17.4402L1.56887 19.6547C1.62455 19.7418 1.69303 19.8139 1.77041 19.8669C1.84778 19.9199 1.93252 19.9527 2.01977 19.9635C2.10703 19.9743 2.19508 19.9629 2.2789 19.9299C2.36272 19.8969 2.44065 19.843 2.50824 19.7712L15.575 5.93106C15.6954 5.80628 15.8454 5.73823 16 5.73823C16.1546 5.73823 16.3046 5.80628 16.4249 5.93106L29.4923 19.7712C29.5597 19.843 29.6376 19.897 29.7213 19.9301C29.805 19.9632 29.8929 19.9748 29.9801 19.9642C30.0673 19.9536 30.152 19.921 30.2294 19.8682C30.3068 19.8155 30.3753 19.7437 30.4311 19.6569L31.8476 17.4423C31.9034 17.3551 31.9452 17.2545 31.9707 17.1464C31.9961 17.0383 32.0047 16.9248 31.9959 16.8124C31.9872 16.7 31.9612 16.591 31.9195 16.4915C31.8779 16.3921 31.8214 16.3042 31.7532 16.2329Z" fill="white"/>
</svg>
