<svg width="20" height="16" viewBox="0 0 20 16" fill="none" xmlns="http://www.w3.org/2000/svg">
<path d="M19.4141 8.66404L12.8516 15.2265C12.2656 15.8125 11.25 15.4023 11.25 14.5625V10.8125H5.9375C5.41797 10.8125 5 10.3945 5 9.87498V6.12498C5 5.60544 5.41797 5.18748 5.9375 5.18748H11.25V1.43748C11.25 0.601539 12.2617 0.187476 12.8516 0.773414L19.4141 7.33591C19.7773 7.7031 19.7773 8.29685 19.4141 8.66404ZM7.5 15.0312V13.4687C7.5 13.2109 7.28906 13 7.03125 13H3.75C3.05859 13 2.5 12.4414 2.5 11.75V4.24998C2.5 3.55857 3.05859 2.99998 3.75 2.99998H7.03125C7.28906 2.99998 7.5 2.78904 7.5 2.53123V0.968726C7.5 0.710914 7.28906 0.499976 7.03125 0.499976H3.75C1.67969 0.499976 0 2.17966 0 4.24998V11.75C0 13.8203 1.67969 15.5 3.75 15.5H7.03125C7.28906 15.5 7.5 15.289 7.5 15.0312Z" fill="white"/>
</svg>
