<svg width="60" height="60" viewBox="0 0 60 60" fill="none" xmlns="http://www.w3.org/2000/svg">
<path d="M53.375 59.75H6.625C3.10414 59.75 0.25 56.8959 0.25 53.375V6.625C0.25 3.10414 3.10414 0.25 6.625 0.25H53.375C56.8959 0.25 59.75 3.10414 59.75 6.625V53.375C59.75 56.8959 56.8959 59.75 53.375 59.75ZM26.1901 46.7265L50.6276 22.289C51.4575 21.4592 51.4575 20.1137 50.6276 19.2839L47.6225 16.2787C46.7927 15.4489 45.4472 15.4488 44.6172 16.2787L24.6875 36.2083L15.3828 26.9036C14.553 26.0738 13.2075 26.0738 12.3775 26.9036L9.37236 29.9088C8.54255 30.7386 8.54255 32.0841 9.37236 32.9139L23.1849 46.7264C24.0148 47.5565 25.3602 47.5565 26.1901 46.7265Z" fill="#0060FF"/>
</svg>
