<svg width="11" height="12" viewBox="0 0 11 12" fill="none" xmlns="http://www.w3.org/2000/svg">
<path fill-rule="evenodd" clip-rule="evenodd" d="M5.31634 0.538269C2.38089 0.538269 0 2.90483 0 5.82308C0 8.74134 2.38089 11.1072 5.31634 11.1072C8.25251 11.1072 10.6327 8.74134 10.6327 5.82308C10.6327 2.90483 8.25251 0.538269 5.31634 0.538269ZM3.52512 2.5688C4.31612 2.5688 4.9581 3.21077 4.9581 4.00177C4.9581 4.79277 4.31612 5.43475 3.52512 5.43475C2.73412 5.43475 2.09214 4.79277 2.09214 4.00177C2.09214 3.21077 2.73412 2.5688 3.52512 2.5688ZM3.52512 9.01719C2.73412 9.01719 2.09214 8.37521 2.09214 7.58421C2.09214 6.79321 2.73412 6.15124 3.52512 6.15124C4.31612 6.15124 4.9581 6.79321 4.9581 7.58421C4.9581 8.37521 4.31612 9.01719 3.52512 9.01719ZM4.7496 5.80302C4.7496 5.47702 5.02186 5.21335 5.35575 5.21335C5.69106 5.21335 5.96333 5.47702 5.96333 5.80302C5.96333 6.12831 5.69106 6.39269 5.35575 6.39269C5.02186 6.39269 4.7496 6.12831 4.7496 5.80302ZM7.10756 9.01719C6.31656 9.01719 5.67458 8.37521 5.67458 7.58421C5.67458 6.79321 6.31656 6.15124 7.10756 6.15124C7.89856 6.15124 8.54054 6.79321 8.54054 7.58421C8.54054 8.37521 7.89856 9.01719 7.10756 9.01719ZM7.10756 5.43475C6.31656 5.43475 5.67458 4.79277 5.67458 4.00177C5.67458 3.21077 6.31656 2.5688 7.10756 2.5688C7.89856 2.5688 8.54054 3.21077 8.54054 4.00177C8.54054 4.79277 7.89856 5.43475 7.10756 5.43475Z" fill="#434343"/>
</svg>
