<svg width="12" height="13" viewBox="0 0 12 13" fill="none" xmlns="http://www.w3.org/2000/svg">
<path fill-rule="evenodd" clip-rule="evenodd" d="M3.27065 2.33009V8.90299C2.86871 8.87791 2.42665 8.94025 1.98673 9.11865C0.836799 9.58364 0.171914 10.5989 0.500774 11.3841C0.833933 12.1715 2.0333 12.4295 3.18252 11.9638C4.06593 11.6055 4.58537 10.9249 4.66347 10.2714L4.65845 3.90561L9.71817 2.93193V7.50157C9.28972 7.45644 8.80538 7.5202 8.32535 7.71437C7.17541 8.18007 6.51124 9.19531 6.84082 9.98056C7.17255 10.7672 8.37192 11.0259 9.52185 10.5602C10.4053 10.2012 11.0193 9.52059 11.0988 8.86788L11.1067 0.763885L3.27065 2.33009Z" fill="#434343"/>
</svg>
