<svg width="20" height="20" viewBox="0 0 20 20" fill="none" xmlns="http://www.w3.org/2000/svg">
<path fill-rule="evenodd" clip-rule="evenodd" d="M19.6 9.99999C19.6 12.5461 18.5886 14.9879 16.7882 16.7882C14.9879 18.5886 12.5461 19.6 10 19.6C7.45395 19.6 5.01215 18.5886 3.2118 16.7882C1.41145 14.9879 0.400024 12.5461 0.400024 9.99999C0.400024 7.45392 1.41145 5.01212 3.2118 3.21177C5.01215 1.41142 7.45395 0.399994 10 0.399994C12.5461 0.399994 14.9879 1.41142 16.7882 3.21177C18.5886 5.01212 19.6 7.45392 19.6 9.99999ZM12.4 6.39999C12.4 7.03651 12.1472 7.64696 11.6971 8.09705C11.247 8.54714 10.6365 8.79999 10 8.79999C9.36351 8.79999 8.75306 8.54714 8.30297 8.09705C7.85288 7.64696 7.60002 7.03651 7.60002 6.39999C7.60002 5.76347 7.85288 5.15303 8.30297 4.70294C8.75306 4.25285 9.36351 3.99999 10 3.99999C10.6365 3.99999 11.247 4.25285 11.6971 4.70294C12.1472 5.15303 12.4 5.76347 12.4 6.39999ZM10 11.2C8.85115 11.1998 7.72636 11.5294 6.75932 12.1497C5.79229 12.77 5.02368 13.6549 4.54482 14.6992C5.22004 15.4847 6.05715 16.1149 6.99876 16.5466C7.94037 16.9782 8.96419 17.2011 10 17.2C11.0359 17.2011 12.0597 16.9782 13.0013 16.5466C13.9429 16.1149 14.78 15.4847 15.4552 14.6992C14.9764 13.6549 14.2078 12.77 13.2407 12.1497C12.2737 11.5294 11.1489 11.1998 10 11.2Z" fill="black"/>
</svg>
