<svg width="18" height="18" viewBox="0 0 18 18" fill="none" xmlns="http://www.w3.org/2000/svg">
<path fill-rule="evenodd" clip-rule="evenodd" d="M0.268677 0.583221H14.9855V1.60963H0.268677V0.583221Z" fill="#434343"/>
<path fill-rule="evenodd" clip-rule="evenodd" d="M0.268677 2.67157H14.9855V3.65517H0.268677V2.67157Z" fill="#434343"/>
<path fill-rule="evenodd" clip-rule="evenodd" d="M0.268677 15.2015H11.8448V16.1945H0.268677V15.2015Z" fill="#434343"/>
<path fill-rule="evenodd" clip-rule="evenodd" d="M9.23761 4.81628C6.61771 4.81628 4.49432 6.8973 4.49432 9.4649C4.49432 12.0325 6.61771 14.1135 9.23761 14.1135C11.8575 14.1135 13.9798 12.0325 13.9798 9.4649C13.9798 6.8973 11.8586 4.81628 9.23761 4.81628ZM9.23761 13.132C7.17021 13.132 5.49475 11.478 5.49475 9.43671C5.49475 7.39641 7.17021 5.73932 9.23761 5.73932C11.304 5.73932 12.9784 7.39641 12.9784 9.43671C12.9784 11.478 11.304 13.132 9.23761 13.132Z" fill="#434343"/>
<path fill-rule="evenodd" clip-rule="evenodd" d="M17.1058 15.8395L15.668 17.2606L12.503 14.1323C12.503 14.1323 13.1051 14.0561 13.4865 13.6791C13.8679 13.3011 13.9418 12.7101 13.9418 12.7101L17.1058 15.8395Z" fill="#434343"/>
<path fill-rule="evenodd" clip-rule="evenodd" d="M9.43516 7.29721C9.99084 7.29721 9.78272 6.87955 9.00943 6.87955C7.67835 6.87955 6.60187 7.93415 6.60187 9.23518C6.60187 9.9922 7.02866 10.1969 7.02866 9.65284C7.0276 8.35182 8.10514 7.29721 9.43516 7.29721Z" fill="#434343"/>
<path fill-rule="evenodd" clip-rule="evenodd" d="M0.268677 4.7599H4.4658V5.76439H0.268677V4.7599Z" fill="#434343"/>
<path fill-rule="evenodd" clip-rule="evenodd" d="M0.268677 6.84822H3.43791V7.86419H0.268677V6.84822Z" fill="#434343"/>
<path fill-rule="evenodd" clip-rule="evenodd" d="M0.268677 8.93654H3.41678V9.97339H0.268677V8.93654Z" fill="#434343"/>
<path fill-rule="evenodd" clip-rule="evenodd" d="M0.268677 11.0249H3.45904V12.0408H0.268677V11.0249Z" fill="#434343"/>
<path fill-rule="evenodd" clip-rule="evenodd" d="M0.268677 13.1132H4.49432V14.0853H0.268677V13.1132Z" fill="#434343"/>
</svg>
