<svg width="20" height="20" viewBox="0 0 20 20" fill="none" xmlns="http://www.w3.org/2000/svg">
<path d="M19.0391 12.332L17.375 11.3711C17.543 10.4648 17.543 9.53513 17.375 8.62888L19.0391 7.66794C19.2305 7.55857 19.3164 7.33201 19.2539 7.12107C18.8203 5.73044 18.082 4.47263 17.1172 3.42576C16.9687 3.2656 16.7266 3.22654 16.5391 3.33591L14.875 4.29685C14.1758 3.69529 13.3711 3.23044 12.5 2.92576V1.00779C12.5 0.789038 12.3477 0.597632 12.1328 0.550757C10.6992 0.230444 9.23046 0.246069 7.86718 0.550757C7.65234 0.597632 7.5 0.789038 7.5 1.00779V2.92966C6.63281 3.23826 5.82812 3.7031 5.12499 4.30076L3.46484 3.33982C3.27343 3.23044 3.03515 3.2656 2.88671 3.42966C1.92187 4.47263 1.18359 5.73044 0.749995 7.12497C0.683589 7.33591 0.773432 7.56247 0.964839 7.67185L2.6289 8.63279C2.46093 9.53904 2.46093 10.4687 2.6289 11.375L0.964839 12.3359C0.773432 12.4453 0.687495 12.6718 0.749995 12.8828C1.18359 14.2734 1.92187 15.5312 2.88671 16.5781C3.03515 16.7383 3.27734 16.7773 3.46484 16.6679L5.1289 15.707C5.82812 16.3086 6.63281 16.7734 7.5039 17.0781V19C7.5039 19.2187 7.65625 19.4101 7.87109 19.457C9.30468 19.7773 10.7734 19.7617 12.1367 19.457C12.3516 19.4101 12.5039 19.2187 12.5039 19V17.0781C13.3711 16.7695 14.1758 16.3047 14.8789 15.707L16.543 16.6679C16.7344 16.7773 16.9727 16.7422 17.1211 16.5781C18.0859 15.5351 18.8242 14.2773 19.2578 12.8828C19.3164 12.6679 19.2305 12.4414 19.0391 12.332ZM10 13.125C8.27734 13.125 6.875 11.7226 6.875 9.99998C6.875 8.27732 8.27734 6.87498 10 6.87498C11.7227 6.87498 13.125 8.27732 13.125 9.99998C13.125 11.7226 11.7227 13.125 10 13.125Z" fill="white"/>
</svg>
