<svg width="20" height="22" viewBox="0 0 20 22" fill="none" xmlns="http://www.w3.org/2000/svg">
<path fill-rule="evenodd" clip-rule="evenodd" d="M9.76956 17.3311C11.3688 17.0791 13.5175 17.4625 14.8862 18.6769C16.2548 19.8914 18.1744 19.7507 20.0001 20.0563V21.2252C18.4666 20.9665 15.4827 20.6676 14.4371 19.74C13.3942 18.815 11.673 18.2788 10.0578 18.5349C8.58859 18.7668 8.28966 17.5643 9.76956 17.3311Z" fill="#F4ED35"/>
<path fill-rule="evenodd" clip-rule="evenodd" d="M9.94638 0C4.45442 0 0 4.42761 0 9.8874C0 15.3472 4.45442 19.7735 9.94638 19.7735C15.4397 19.7735 19.8928 15.3472 19.8928 9.8874C19.8928 4.42761 15.4397 0 9.94638 0ZM6.59518 3.79893C8.07507 3.79893 9.27614 5 9.27614 6.47989C9.27614 7.95979 8.07507 9.16086 6.59518 9.16086C5.11528 9.16086 3.91421 7.95979 3.91421 6.47989C3.91421 5 5.11528 3.79893 6.59518 3.79893ZM6.59518 15.8633C5.11528 15.8633 3.91421 14.6622 3.91421 13.1823C3.91421 11.7024 5.11528 10.5013 6.59518 10.5013C8.07507 10.5013 9.27614 11.7024 9.27614 13.1823C9.27614 14.6622 8.07507 15.8633 6.59518 15.8633ZM8.88606 9.84987C8.88606 9.23995 9.39544 8.74665 10.0201 8.74665C10.6475 8.74665 11.1568 9.23995 11.1568 9.84987C11.1568 10.4584 10.6475 10.9531 10.0201 10.9531C9.39544 10.9531 8.88606 10.4584 8.88606 9.84987ZM13.2976 15.8633C11.8177 15.8633 10.6166 14.6622 10.6166 13.1823C10.6166 11.7024 11.8177 10.5013 13.2976 10.5013C14.7775 10.5013 15.9786 11.7024 15.9786 13.1823C15.9786 14.6622 14.7775 15.8633 13.2976 15.8633ZM13.2976 9.16086C11.8177 9.16086 10.6166 7.95979 10.6166 6.47989C10.6166 5 11.8177 3.79893 13.2976 3.79893C14.7775 3.79893 15.9786 5 15.9786 6.47989C15.9786 7.95979 14.7775 9.16086 13.2976 9.16086Z" fill="#F4ED35"/>
</svg>
