<svg width="20" height="20" viewBox="0 0 20 20" fill="none" xmlns="http://www.w3.org/2000/svg">
<path fill-rule="evenodd" clip-rule="evenodd" d="M10.0025 14.1677V11.0782C10.0025 10.0756 10.7215 9.2604 11.6075 9.2604H17.5016V7.3355C17.5016 6.42257 16.9946 5.65957 16.3007 5.41059L14.2289 5.39319L14.2038 5.31555H4.904L4.72707 5.3798L1.44686 5.37713L1.44058 5.34902C0.64249 5.50965 0 6.28068 0 7.27258V17.9185C0 19.0322 0.813151 20 1.74551 20H15.8175C16.7499 20 17.5028 19.0951 17.5028 17.9814V16.0364H11.6087C10.7228 16.0364 10.0025 15.1703 10.0025 14.1677Z" fill="white"/>
<path fill-rule="evenodd" clip-rule="evenodd" d="M18.7965 10.7222H18.735H12.5134C11.8496 10.7222 11.3113 11.3486 11.3113 12.121V13.2133C11.3113 13.9843 11.8496 14.6108 12.5134 14.6108H18.735H18.7965C19.4604 14.6108 19.9999 13.9843 19.9999 13.2133V12.121C19.9999 11.3473 19.4604 10.7222 18.7965 10.7222ZM15.0759 13.3391H12.4883V11.9791H15.0759V13.3391Z" fill="white"/>
<path fill-rule="evenodd" clip-rule="evenodd" d="M4.90528 5.31557L13.2263 2.27829L14.2051 5.31557H15.8176C15.987 5.31557 16.1476 5.35439 16.3019 5.40928L14.5589 0L1.29504 4.71321L1.44186 5.35038C1.541 5.3303 1.64264 5.31691 1.74554 5.31691L4.90528 5.31557Z" fill="white"/>
</svg>
